# xmcd
#
# Track frame offsets:
#	150
#	19203
#	41790
#	54287
#	70560
#	86131
#	101208
#	120260
#	142845
#	155327
#	171584
#	187125
#
# Disc length: 2696 seconds
#
# Revision: 0
# Processed by: cddbd v1.5.2PL0 Copyright (c) Steve Scherf et al.
# Submitted via: audiograbber 1.83.01
#
DISCID=a10a860c
DTITLE=Roberts, Julie - CB20605
DYEAR=1900
DGENRE=Karaoke
TTITLE0=Break Down Here
TTITLE1=Chance, The
TTITLE2=First To Never Know
TTITLE3=Men and Mascara
TTITLE4=Wake Up Older
TTITLE5=Girl Next Door
TTITLE6=Break Down Here w/vocal
TTITLE7=Chance, The w/vocal
TTITLE8=First To Never Know w/vocal
TTITLE9=Men and Mascara w/vocal
TTITLE10=Wake Up Older w/vocal
TTITLE11=Girl Next Door w/vocal
EXTD=
EXTT0=
EXTT1=
EXTT2=
EXTT3=
EXTT4=
EXTT5=
EXTT6=
EXTT7=
EXTT8=
EXTT9=
EXTT10=
EXTT11=
PLAYORDER=
